<?xml version="1.0" encoding="iso-8859-1"?>
<!-- Generator: Adobe Illustrator 19.0.0, SVG Export Plug-In . SVG Version: 6.00 Build 0)  -->
<svg version="1.1" id="Capa_1" xmlns="http://www.w3.org/2000/svg" xmlns:xlink="http://www.w3.org/1999/xlink" x="0px" y="0px"
	 viewBox="0 0 512 512" style="enable-background:new 0 0 512 512;" xml:space="preserve">
<linearGradient id="SVGID_1_" gradientUnits="userSpaceOnUse" x1="0" y1="258" x2="512" y2="258" gradientTransform="matrix(1 0 0 -1 0 514)">
	<stop  offset="0" style="stop-color:#80D8FF"/>
	<stop  offset="1" style="stop-color:#EA80FC"/>
</linearGradient>
<path style="fill:url(#SVGID_1_);" d="M492,512H20c-11.046,0-20-8.954-20-20V20C0,8.954,8.954,0,20,0h472c11.046,0,20,8.954,20,20
	v472C512,503.046,503.046,512,492,512z M40,472h432V40H40V472z M328.151,133.912c11.023,0,15.699,12.024,15.699,23.048
	c0,12.693-5.679,23.716-15.699,23.716h-46.096v181.379c0,10.688-13.027,16.033-26.055,16.033c-13.027,0-26.054-5.345-26.054-16.033
	V180.676H183.85c-10.021,0-15.699-11.022-15.699-23.716c0-11.023,4.676-23.048,15.699-23.048L328.151,133.912L328.151,133.912z"/>
<g>
</g>
<g>
</g>
<g>
</g>
<g>
</g>
<g>
</g>
<g>
</g>
<g>
</g>
<g>
</g>
<g>
</g>
<g>
</g>
<g>
</g>
<g>
</g>
<g>
</g>
<g>
</g>
<g>
</g>
</svg>
