<svg xmlns="http://www.w3.org/2000/svg" xmlns:xlink="http://www.w3.org/1999/xlink" version="1.1" id="Capa_1" x="0px" y="0px" viewBox="0 0 512 512" style="enable-background:new 0 0 512 512;" xml:space="preserve" width="512" height="512" class=""><g><g>
	<g>
		<g>
			<path d="M183.85,180.676h46.096v181.379c0,10.688,13.027,16.033,26.054,16.033c13.028,0,26.055-5.345,26.055-16.033V180.676     h46.096c10.02,0,15.699-11.023,15.699-23.716c0-11.024-4.676-23.048-15.699-23.048H183.85c-11.023,0-15.699,12.025-15.699,23.048     C168.151,169.654,173.829,180.676,183.85,180.676z" data-original="#000000" class="active-path" style="fill:#1D6BE0" data-old_color="#000000"></path>
			<path d="M492,0H20C8.954,0,0,8.954,0,20v472c0,11.046,8.954,20,20,20h472c11.046,0,20-8.954,20-20V20C512,8.954,503.046,0,492,0z      M472,472H40V40h432V472z" data-original="#000000" class="active-path" style="fill:#1D6BE0" data-old_color="#000000"></path>
		</g>
	</g>
</g></g> </svg>